<svg xmlns="http://www.w3.org/2000/svg" xmlns:xlink="http://www.w3.org/1999/xlink" fill="none" version="1.1" width="28" height="28" viewBox="0 0 28 28"><defs><clipPath id="master_svg0_0_158"><rect x="2" y="2" width="24" height="24" rx="0"/></clipPath><linearGradient x1="0.5" y1="-3.0616171314629196e-17" x2="0.5" y2="1" id="master_svg1_0_16"><stop offset="0%" stop-color="#53B99D" stop-opacity="1"/><stop offset="100%" stop-color="#36D1A1" stop-opacity="1"/></linearGradient></defs><g><g></g><g clip-path="url(#master_svg0_0_158)"><g><path d="M16.12132398033142,12.479600164337159C15.73082398033142,12.089100164337157,15.09762398033142,12.089100164337157,14.70712398033142,12.479600164337159C14.70712398033142,12.479600164337159,14.00002398033142,13.186800164337159,14.00002398033142,13.186800164337159C13.21890398033142,13.967800164337158,11.952593980331422,13.967800164337158,11.171543980331421,13.186800164337159C10.39049398033142,12.405700164337158,10.39049398033142,11.139370164337159,11.171543980331421,10.358320164337158C11.171543980331421,10.358320164337158,16.80222398033142,4.726170164337158,16.80222398033142,4.726170164337158C18.906123980331422,4.250220164337158,21.20082398033142,4.831240164337158,22.83882398033142,6.469240164337158C25.258223980331422,8.88860016433716,25.37162398033142,12.740700164337158,23.17922398033142,15.294430164337157C23.17922398033142,15.294430164337157,21.07102398033142,17.42943016433716,21.07102398033142,17.42943016433716C21.07102398033142,17.42943016433716,16.12132398033142,12.479600164337159,16.12132398033142,12.479600164337159ZM5.161133980331421,6.469240164337158C7.334523980331421,4.295840164337158,10.664113980331422,3.983320164337158,13.17000398033142,5.531650164337158C13.17000398033142,5.531650164337158,9.757323980331421,8.944110164337157,9.757323980331421,8.944110164337157C8.19523398033142,10.506210164337158,8.19523398033142,13.038900164337159,9.757323980331421,14.601030164337159C11.272093980331421,16.115730164337158,13.69952398033142,16.161630164337158,15.26952398033142,14.738730164337158C15.26952398033142,14.738730164337158,15.414223980331421,14.601030164337159,15.414223980331421,14.601030164337159C15.414223980331421,14.601030164337159,19.65682398033142,18.843630164337156,19.65682398033142,18.843630164337156C19.65682398033142,18.843630164337156,15.414223980331421,23.08623016433716,15.414223980331421,23.08623016433716C14.63312398033142,23.867330164337158,13.366823980331421,23.867330164337158,12.585803980331422,23.08623016433716C12.585803980331422,23.08623016433716,5.161133980331421,15.661630164337158,5.161133980331421,15.661630164337158C2.622721980331421,13.123200164337158,2.622721980331421,9.007640164337158,5.161133980331421,6.469240164337158Z" fill="#000000" fill-opacity="1"/><path d="M16.12132398033142,12.479600164337159C15.73082398033142,12.089100164337157,15.09762398033142,12.089100164337157,14.70712398033142,12.479600164337159C14.70712398033142,12.479600164337159,14.00002398033142,13.186800164337159,14.00002398033142,13.186800164337159C13.21890398033142,13.967800164337158,11.952593980331422,13.967800164337158,11.171543980331421,13.186800164337159C10.39049398033142,12.405700164337158,10.39049398033142,11.139370164337159,11.171543980331421,10.358320164337158C11.171543980331421,10.358320164337158,16.80222398033142,4.726170164337158,16.80222398033142,4.726170164337158C18.906123980331422,4.250220164337158,21.20082398033142,4.831240164337158,22.83882398033142,6.469240164337158C25.258223980331422,8.88860016433716,25.37162398033142,12.740700164337158,23.17922398033142,15.294430164337157C23.17922398033142,15.294430164337157,21.07102398033142,17.42943016433716,21.07102398033142,17.42943016433716C21.07102398033142,17.42943016433716,16.12132398033142,12.479600164337159,16.12132398033142,12.479600164337159ZM5.161133980331421,6.469240164337158C7.334523980331421,4.295840164337158,10.664113980331422,3.983320164337158,13.17000398033142,5.531650164337158C13.17000398033142,5.531650164337158,9.757323980331421,8.944110164337157,9.757323980331421,8.944110164337157C8.19523398033142,10.506210164337158,8.19523398033142,13.038900164337159,9.757323980331421,14.601030164337159C11.272093980331421,16.115730164337158,13.69952398033142,16.161630164337158,15.26952398033142,14.738730164337158C15.26952398033142,14.738730164337158,15.414223980331421,14.601030164337159,15.414223980331421,14.601030164337159C15.414223980331421,14.601030164337159,19.65682398033142,18.843630164337156,19.65682398033142,18.843630164337156C19.65682398033142,18.843630164337156,15.414223980331421,23.08623016433716,15.414223980331421,23.08623016433716C14.63312398033142,23.867330164337158,13.366823980331421,23.867330164337158,12.585803980331422,23.08623016433716C12.585803980331422,23.08623016433716,5.161133980331421,15.661630164337158,5.161133980331421,15.661630164337158C2.622721980331421,13.123200164337158,2.622721980331421,9.007640164337158,5.161133980331421,6.469240164337158Z" fill="url(#master_svg1_0_16)" fill-opacity="1"/></g></g></g></svg>