<svg xmlns="http://www.w3.org/2000/svg" xmlns:xlink="http://www.w3.org/1999/xlink" fill="none" version="1.1" width="28" height="28" viewBox="0 0 28 28"><defs><clipPath id="master_svg0_0_130"><rect x="2" y="2" width="24" height="24" rx="0"/></clipPath><linearGradient x1="0.5" y1="-3.0616171314629196e-17" x2="0.5" y2="1" id="master_svg1_0_16"><stop offset="0%" stop-color="#53B99D" stop-opacity="1"/><stop offset="100%" stop-color="#36D1A1" stop-opacity="1"/></linearGradient></defs><g><g></g><g clip-path="url(#master_svg0_0_130)"><g><path d="M11,21C11,21,14,21,14,21C14,21,14,14.9416,14,14.9416C14,14.9416,10,11.45402,10,11.45402C10,11.45402,6,14.9416,6,14.9416C6,14.9416,6,21,6,21C6,21,9,21,9,21C9,21,9,17,9,17C9,17,11,17,11,17C11,17,11,21,11,21ZM23,23C23,23,5,23,5,23C4.44772,23,4,22.5523,4,22C4,22,4,14.4868,4,14.4868C4,14.1978,4.12501,13.9229,4.34282,13.733C4.34282,13.733,8,10.54435,8,10.54435C8,10.54435,8,6,8,6C8,5.44772,8.44772,5,9,5C9,5,23,5,23,5C23.5523,5,24,5.44772,24,6C24,6,24,22,24,22C24,22.5523,23.5523,23,23,23ZM18,13C18,13,18,15,18,15C18,15,20,15,20,15C20,15,20,13,20,13C20,13,18,13,18,13ZM18,17C18,17,18,19,18,19C18,19,20,19,20,19C20,19,20,17,20,17C20,17,18,17,18,17ZM18,9C18,9,18,11,18,11C18,11,20,11,20,11C20,11,20,9,20,9C20,9,18,9,18,9ZM14,9C14,9,14,11,14,11C14,11,16,11,16,11C16,11,16,9,16,9C16,9,14,9,14,9Z" fill="#000000" fill-opacity="1"/><path d="M11,21C11,21,14,21,14,21C14,21,14,14.9416,14,14.9416C14,14.9416,10,11.45402,10,11.45402C10,11.45402,6,14.9416,6,14.9416C6,14.9416,6,21,6,21C6,21,9,21,9,21C9,21,9,17,9,17C9,17,11,17,11,17C11,17,11,21,11,21ZM23,23C23,23,5,23,5,23C4.44772,23,4,22.5523,4,22C4,22,4,14.4868,4,14.4868C4,14.1978,4.12501,13.9229,4.34282,13.733C4.34282,13.733,8,10.54435,8,10.54435C8,10.54435,8,6,8,6C8,5.44772,8.44772,5,9,5C9,5,23,5,23,5C23.5523,5,24,5.44772,24,6C24,6,24,22,24,22C24,22.5523,23.5523,23,23,23ZM18,13C18,13,18,15,18,15C18,15,20,15,20,15C20,15,20,13,20,13C20,13,18,13,18,13ZM18,17C18,17,18,19,18,19C18,19,20,19,20,19C20,19,20,17,20,17C20,17,18,17,18,17ZM18,9C18,9,18,11,18,11C18,11,20,11,20,11C20,11,20,9,20,9C20,9,18,9,18,9ZM14,9C14,9,14,11,14,11C14,11,16,11,16,11C16,11,16,9,16,9C16,9,14,9,14,9Z" fill="url(#master_svg1_0_16)" fill-opacity="1"/></g></g></g></svg>