<svg xmlns="http://www.w3.org/2000/svg" xmlns:xlink="http://www.w3.org/1999/xlink" fill="none" version="1.1" width="28" height="28" viewBox="0 0 28 28"><defs><clipPath id="master_svg0_0_193"><rect x="2" y="2" width="24" height="24" rx="0"/></clipPath></defs><g><g></g><g clip-path="url(#master_svg0_0_193)"><g><path d="M14,24C8.47715,24,4,19.5228,4,14C4,8.47715,8.47715,4,14,4C19.5228,4,24,8.47715,24,14C24,19.5228,19.5228,24,14,24ZM14,22C18.418300000000002,22,22,18.418300000000002,22,14C22,9.58172,18.418300000000002,6,14,6C9.58172,6,6,9.58172,6,14C6,18.418300000000002,9.58172,22,14,22ZM9,14C9,14,11,14,11,14C11,15.6569,12.3431,17,14,17C15.6569,17,17,15.6569,17,14C17,14,19,14,19,14C19,16.761400000000002,16.761400000000002,19,14,19C11.238579999999999,19,9,16.761400000000002,9,14Z" fill="#CBCBCB" fill-opacity="1"/></g></g></g></svg>