<svg xmlns="http://www.w3.org/2000/svg" xmlns:xlink="http://www.w3.org/1999/xlink" fill="none" version="1.1" width="28" height="28" viewBox="0 0 28 28"><defs><clipPath id="master_svg0_0_165"><rect x="2" y="2" width="24" height="24" rx="0"/></clipPath></defs><g><g></g><g clip-path="url(#master_svg0_0_165)"><g><path d="M5.161133861122131,6.469240164337158C7.585083861122131,4.045290164337159,11.447163861122132,3.9359901643371584,14.00082386112213,6.141330164337158C16.552823861122132,3.9359901643371584,20.41492386112213,4.045290164337159,22.83882386112213,6.469240164337158C25.258423861122132,8.888840164337157,25.37162386112213,12.741400164337158,23.17852386112213,15.295230164337157C23.17852386112213,15.295230164337157,15.414223861122132,23.08623016433716,15.414223861122132,23.08623016433716C14.668623861122132,23.83183016433716,13.48092386112213,23.865730164337158,12.695203861122131,23.187930164337157C12.695203861122131,23.187930164337157,12.585803861122132,23.08623016433716,12.585803861122132,23.08623016433716C12.585803861122132,23.08623016433716,4.8214138611221316,15.295230164337157,4.8214138611221316,15.295230164337157C2.6282818611221312,12.741400164337158,2.7415218611221315,8.888840164337157,5.161133861122131,6.469240164337158ZM6.575343861122132,7.883450164337159C4.868193861122132,9.590600164337157,4.819423861122131,12.328100164337158,6.429023861122131,14.094200164337158C6.429023861122131,14.094200164337158,6.575343861122132,14.247400164337158,6.575343861122132,14.247400164337158C6.575343861122132,14.247400164337158,14.00002386112213,21.67203016433716,14.00002386112213,21.67203016433716C14.00002386112213,21.67203016433716,19.302623861122132,16.368030164337156,19.302623861122132,16.368030164337156C19.302623861122132,16.368030164337156,15.767723861122132,12.833200164337159,15.767723861122132,12.833200164337159C15.767723861122132,12.833200164337159,14.707123861122131,13.893900164337158,14.707123861122131,13.893900164337158C13.535523861122131,15.065430164337158,11.63600386112213,15.065430164337158,10.464433861122131,13.893900164337158C9.292863861122132,12.722300164337158,9.292863861122132,10.822790164337158,10.464433861122131,9.651220164337158C10.464433861122131,9.651220164337158,12.565603861122131,7.548720164337158,12.565603861122131,7.548720164337158C10.852923861122132,6.177620164337158,8.370763861122132,6.240420164337158,6.7286038611221315,7.737120164337158C6.7286038611221315,7.737120164337158,6.575343861122132,7.883450164337159,6.575343861122132,7.883450164337159ZM15.060623861122131,10.711880164337158C15.45112386112213,10.321350164337158,16.08432386112213,10.321350164337158,16.474823861122132,10.711880164337158C16.474823861122132,10.711880164337158,20.71682386112213,14.953830164337159,20.71682386112213,14.953830164337159C20.71682386112213,14.953830164337159,21.424623861122132,14.247400164337158,21.424623861122132,14.247400164337158C23.181923861122133,12.490100164337157,23.181923861122133,9.640810164337157,21.424623861122132,7.883450164337159C19.717423861122132,6.1763001643371584,16.97992386112213,6.127520164337158,15.213923861122131,7.737120164337158C15.213923861122131,7.737120164337158,15.060623861122131,7.883450164337159,15.060623861122131,7.883450164337159C15.060623861122131,7.883450164337159,11.878643861122132,11.065430164337158,11.878643861122132,11.065430164337158C11.516013861122131,11.428060164337158,11.490113861122131,11.999910164337159,11.800943861122132,12.392400164337158C11.800943861122132,12.392400164337158,11.878643861122132,12.479600164337159,11.878643861122132,12.479600164337159C12.241303861122132,12.842300164337159,12.813103861122132,12.868200164337159,13.205603861122132,12.557300164337157C13.205603861122132,12.557300164337157,13.292923861122132,12.479600164337159,13.292923861122132,12.479600164337159C13.292923861122132,12.479600164337159,15.060623861122131,10.711880164337158,15.060623861122131,10.711880164337158Z" fill="#CBCBCB" fill-opacity="1"/></g></g></g></svg>