<svg xmlns="http://www.w3.org/2000/svg" xmlns:xlink="http://www.w3.org/1999/xlink" fill="none" version="1.1" width="28" height="28" viewBox="0 0 28 28"><defs><clipPath id="master_svg0_0_172"><rect x="2" y="2" width="24" height="24" rx="0"/></clipPath><linearGradient x1="0.5" y1="-3.0616171314629196e-17" x2="0.5" y2="1" id="master_svg1_0_16"><stop offset="0%" stop-color="#53B99D" stop-opacity="1"/><stop offset="100%" stop-color="#36D1A1" stop-opacity="1"/></linearGradient></defs><g><g></g><g clip-path="url(#master_svg0_0_172)"><g><path d="M7.322440715255738,7.965769737319946C7.423670715255737,7.8539497373199465,7.528200715255737,7.744049737319946,7.636040715255737,7.636199737319947C8.119450715255738,7.152799737319946,8.644170715255736,6.735879737319946,9.198830715255738,6.385439737319946C8.884900715255737,6.298909737319946,8.602740715255738,6.247659737319946,8.355420715255738,6.229009737319947C7.783080715255737,6.185839737319946,7.532430715255737,6.321749737319946,7.4255307152557375,6.4286497373199465C7.318630715255738,6.535549737319947,7.182720715255737,6.786199737319946,7.225890715255737,7.358529737319946C7.239740715255737,7.542159737319946,7.271560715255737,7.744989737319946,7.322440715255738,7.965769737319946ZM22.725700715255737,16.210889737319945C22.787300715255736,16.333889737319947,22.846300715255737,16.455889737319946,22.902800715255736,16.57678973731995C23.379300715255738,17.597889737319946,23.694100715255736,18.594589737319946,23.76160071525574,19.490489737319947C23.828900715255738,20.382089737319948,23.656000715255736,21.310889737319947,22.981900715255737,21.984989737319946C22.307700715255738,22.659089737319945,21.37900071525574,22.831989737319947,20.48740071525574,22.764789737319948C19.70680071525574,22.705889737319946,18.849700715255736,22.459289737319946,17.966600715255737,22.081689737319945C17.966600715255737,22.081689737319945,17.964000715255736,22.082889737319945,17.964000715255736,22.082889737319945C17.810900715255737,22.017389737319945,17.657000715255737,21.947989737319947,17.502500715255735,21.874789737319947C15.469500715255737,20.912489737319945,13.143500715255737,19.220689737319944,10.959900715255738,17.037089737319945C8.778550715255736,14.855789737319947,7.088070715255737,12.532299737319946,6.125200715255737,10.500909737319947C6.051780715255737,10.345999737319946,5.982049715255737,10.191659737319945,5.916289715255737,10.038139737319947C5.916289715255737,10.038139737319947,5.917339715255737,10.035999737319946,5.917339715255737,10.035999737319946C5.538149715255737,9.150699737319947,5.290569715255737,8.291399737319946,5.2315497152557375,7.508949737319947C5.164299715255737,6.617309737319946,5.337170715255738,5.688579737319946,6.011320715255737,5.014439737319947C6.685470715255738,4.340289737319947,7.614190715255737,4.1674198373199465,8.505830715255737,4.234669837319946C9.401740715255738,4.302239837319946,10.398400715255736,4.617029737319946,11.419490715255737,5.093529737319947C11.542530715255737,5.150959737319946,11.666670715255737,5.211079737319946,11.791810715255737,5.273839737319946C14.762300715255737,4.525149737319946,18.040400715255736,5.312599737319946,20.364000715255738,7.636199737319947C22.688200715255736,9.960469737319947,23.475500715255738,13.239699737319945,22.725700715255737,16.210889737319945ZM21.612800715255737,18.804389737319944C21.262700715255736,19.357889737319944,20.846500715255736,19.881589737319945,20.364000715255738,20.364089737319947C20.257000715255735,20.471089737319947,20.147900715255737,20.574889737319946,20.037000715255736,20.675389737319946C20.255300715255736,20.725389737319947,20.456000715255737,20.756689737319945,20.637800715255736,20.770389737319945C21.210100715255738,20.813589737319948,21.460800715255736,20.677689737319945,21.567700715255736,20.570789737319945C21.67460071525574,20.463889737319946,21.81050071525574,20.213189737319947,21.767300715255736,19.640889737319945C21.748800715255737,19.395389737319945,21.698200715255737,19.115589737319944,21.612800715255737,18.804389737319944ZM7.636040715255737,20.364089737319947C5.372410715255738,18.100489737319947,4.566659715255737,14.931089737319946,5.218769715255737,12.022599737319947C6.301050715255737,14.003399737319945,7.923740715255738,16.122289737319946,9.899240715255736,18.097789737319946C11.876320715255737,20.074789737319946,13.997100715255737,21.698589737319946,15.979400715255737,22.780989737319945C13.070500715255736,23.433889737319948,9.900150715255737,22.628189737319946,7.636040715255737,20.364089737319947Z" fill="#000000" fill-opacity="1"/><path d="M7.322440715255738,7.965769737319946C7.423670715255737,7.8539497373199465,7.528200715255737,7.744049737319946,7.636040715255737,7.636199737319947C8.119450715255738,7.152799737319946,8.644170715255736,6.735879737319946,9.198830715255738,6.385439737319946C8.884900715255737,6.298909737319946,8.602740715255738,6.247659737319946,8.355420715255738,6.229009737319947C7.783080715255737,6.185839737319946,7.532430715255737,6.321749737319946,7.4255307152557375,6.4286497373199465C7.318630715255738,6.535549737319947,7.182720715255737,6.786199737319946,7.225890715255737,7.358529737319946C7.239740715255737,7.542159737319946,7.271560715255737,7.744989737319946,7.322440715255738,7.965769737319946ZM22.725700715255737,16.210889737319945C22.787300715255736,16.333889737319947,22.846300715255737,16.455889737319946,22.902800715255736,16.57678973731995C23.379300715255738,17.597889737319946,23.694100715255736,18.594589737319946,23.76160071525574,19.490489737319947C23.828900715255738,20.382089737319948,23.656000715255736,21.310889737319947,22.981900715255737,21.984989737319946C22.307700715255738,22.659089737319945,21.37900071525574,22.831989737319947,20.48740071525574,22.764789737319948C19.70680071525574,22.705889737319946,18.849700715255736,22.459289737319946,17.966600715255737,22.081689737319945C17.966600715255737,22.081689737319945,17.964000715255736,22.082889737319945,17.964000715255736,22.082889737319945C17.810900715255737,22.017389737319945,17.657000715255737,21.947989737319947,17.502500715255735,21.874789737319947C15.469500715255737,20.912489737319945,13.143500715255737,19.220689737319944,10.959900715255738,17.037089737319945C8.778550715255736,14.855789737319947,7.088070715255737,12.532299737319946,6.125200715255737,10.500909737319947C6.051780715255737,10.345999737319946,5.982049715255737,10.191659737319945,5.916289715255737,10.038139737319947C5.916289715255737,10.038139737319947,5.917339715255737,10.035999737319946,5.917339715255737,10.035999737319946C5.538149715255737,9.150699737319947,5.290569715255737,8.291399737319946,5.2315497152557375,7.508949737319947C5.164299715255737,6.617309737319946,5.337170715255738,5.688579737319946,6.011320715255737,5.014439737319947C6.685470715255738,4.340289737319947,7.614190715255737,4.1674198373199465,8.505830715255737,4.234669837319946C9.401740715255738,4.302239837319946,10.398400715255736,4.617029737319946,11.419490715255737,5.093529737319947C11.542530715255737,5.150959737319946,11.666670715255737,5.211079737319946,11.791810715255737,5.273839737319946C14.762300715255737,4.525149737319946,18.040400715255736,5.312599737319946,20.364000715255738,7.636199737319947C22.688200715255736,9.960469737319947,23.475500715255738,13.239699737319945,22.725700715255737,16.210889737319945ZM21.612800715255737,18.804389737319944C21.262700715255736,19.357889737319944,20.846500715255736,19.881589737319945,20.364000715255738,20.364089737319947C20.257000715255735,20.471089737319947,20.147900715255737,20.574889737319946,20.037000715255736,20.675389737319946C20.255300715255736,20.725389737319947,20.456000715255737,20.756689737319945,20.637800715255736,20.770389737319945C21.210100715255738,20.813589737319948,21.460800715255736,20.677689737319945,21.567700715255736,20.570789737319945C21.67460071525574,20.463889737319946,21.81050071525574,20.213189737319947,21.767300715255736,19.640889737319945C21.748800715255737,19.395389737319945,21.698200715255737,19.115589737319944,21.612800715255737,18.804389737319944ZM7.636040715255737,20.364089737319947C5.372410715255738,18.100489737319947,4.566659715255737,14.931089737319946,5.218769715255737,12.022599737319947C6.301050715255737,14.003399737319945,7.923740715255738,16.122289737319946,9.899240715255736,18.097789737319946C11.876320715255737,20.074789737319946,13.997100715255737,21.698589737319946,15.979400715255737,22.780989737319945C13.070500715255736,23.433889737319948,9.900150715255737,22.628189737319946,7.636040715255737,20.364089737319947Z" fill="url(#master_svg1_0_16)" fill-opacity="1"/></g></g></g></svg>