<svg xmlns="http://www.w3.org/2000/svg" xmlns:xlink="http://www.w3.org/1999/xlink" fill="none" version="1.1" width="28" height="28" viewBox="0 0 28 28"><defs><clipPath id="master_svg0_0_144"><rect x="2" y="2" width="24" height="24" rx="0"/></clipPath><linearGradient x1="0.5" y1="-3.0616171314629196e-17" x2="0.5" y2="1" id="master_svg1_0_16"><stop offset="0%" stop-color="#53B99D" stop-opacity="1"/><stop offset="100%" stop-color="#36D1A1" stop-opacity="1"/></linearGradient></defs><g><g></g><g clip-path="url(#master_svg0_0_144)"><g><path d="M22,24C22,24,6,24,6,24C5.44772,24,5,23.5523,5,23C5,23,5,5,5,5C5,4.44772,5.44772,4,6,4C6,4,22,4,22,4C22.5523,4,23,4.44772,23,5C23,5,23,23,23,23C23,23.5523,22.5523,24,22,24ZM10,9C10,9,10,11,10,11C10,11,18,11,18,11C18,11,18,9,18,9C18,9,10,9,10,9ZM10,13C10,13,10,15,10,15C10,15,18,15,18,15C18,15,18,13,18,13C18,13,10,13,10,13ZM10,17C10,17,10,19,10,19C10,19,15,19,15,19C15,19,15,17,15,17C15,17,10,17,10,17Z" fill="#000000" fill-opacity="1"/><path d="M22,24C22,24,6,24,6,24C5.44772,24,5,23.5523,5,23C5,23,5,5,5,5C5,4.44772,5.44772,4,6,4C6,4,22,4,22,4C22.5523,4,23,4.44772,23,5C23,5,23,23,23,23C23,23.5523,22.5523,24,22,24ZM10,9C10,9,10,11,10,11C10,11,18,11,18,11C18,11,18,9,18,9C18,9,10,9,10,9ZM10,13C10,13,10,15,10,15C10,15,18,15,18,15C18,15,18,13,18,13C18,13,10,13,10,13ZM10,17C10,17,10,19,10,19C10,19,15,19,15,19C15,19,15,17,15,17C15,17,10,17,10,17Z" fill="url(#master_svg1_0_16)" fill-opacity="1"/></g></g></g></svg>