<svg xmlns="http://www.w3.org/2000/svg" xmlns:xlink="http://www.w3.org/1999/xlink" fill="none" version="1.1" width="28" height="28" viewBox="0 0 28 28"><defs><clipPath id="master_svg0_0_179"><rect x="2" y="2" width="24" height="24" rx="0"/></clipPath></defs><g><g></g><g clip-path="url(#master_svg0_0_179)"><g><path d="M5.91762,10.036599498901367C5.32984,11.233279498901368,5,12.579199498901367,5,13.999899498901367C5,18.97038949890137,9.029440000000001,22.999889498901368,14,22.999889498901368C15.4216,22.999889498901368,16.7684,22.669589498901367,17.9657,22.080989498901367C18.8385,22.454389498901367,19.6848,22.69908949890137,20.456400000000002,22.761989498901368C21.3582,22.835589498901367,22.3,22.666489498901367,22.9818,21.984689498901368C23.7339,21.232489498901366,23.8625,20.168889498901365,23.7279,19.172689498901367C23.6052,18.263789498901367,23.2481,17.253689498901366,22.726,16.21138949890137C22.9051,15.502989498901368,23,14.761889498901366,23,13.999899498901367C23,9.029289498901367,18.970599999999997,4.999859498901367,14,4.999859498901367C13.2389,4.999859498901367,12.4987,5.0945394989013675,11.79103,5.273179498901367C10.747399999999999,4.749799498901368,9.736049999999999,4.391720498901368,8.8261,4.268339998901367C7.82897,4.133149998901367,6.76406,4.261280098901367,6.01121,5.014130498901367C5.3286999999999995,5.696639498901368,5.16001,6.639559498901367,5.2341,7.542329498901367C5.2975200000000005,8.314999498901368,5.54313,9.162469498901366,5.91762,10.036599498901367ZM7.3224,7.9657394989013675C7.2734000000000005,7.753209498901367,7.242039999999999,7.557149498901367,7.227399999999999,7.378729498901367C7.17928,6.792429498901367,7.317270000000001,6.536489498901368,7.42543,6.428339498901368C7.54452,6.309249498901368,7.84797,6.154029498901367,8.55739,6.250209498901367C8.75482,6.276979498901367,8.96951,6.321889498901367,9.2,6.385469498901367C8.50364,6.825269498901367,7.8720300000000005,7.357839498901367,7.3224,7.9657394989013675ZM21.6124,18.80298949890137C21.6751,19.03158949890137,21.7195,19.244489498901366,21.7459,19.440389498901368C21.8416,20.14848949890137,21.6865,20.451489498901367,21.5676,20.570489498901367C21.4595,20.678489498901367,21.204,20.816289498901366,20.6189,20.768589498901367C20.4419,20.75418949890137,20.247500000000002,20.723289498901366,20.0368,20.67498949890137C20.642699999999998,20.126789498901367,21.1736,19.497089498901367,21.6124,18.80298949890137ZM17.8812,19.826389498901367C16.2046,18.948189498901368,14.2571,17.502589498901365,12.3752,15.620689498901367C10.4954,13.740999498901367,9.05092,11.795609498901367,8.17241,10.120279498901368C9.06357,8.784649498901366,10.40124,7.773119498901368,11.96933,7.298659498901367C12.610800000000001,7.104569498901367,13.2923,6.999859498901367,14,6.999859498901367C17.866,6.999859498901367,21,10.133859498901368,21,13.999899498901367C21,14.708289498901367,20.8951,15.390389498901367,20.7006,16.032489498901366C20.226100000000002,17.599089498901368,19.2155,18.935589498901365,17.8812,19.826389498901367ZM15.6052,20.81518949890137C15.0901,20.935889498901368,14.5528,20.999889498901368,14,20.999889498901368C10.13401,20.999889498901368,7,17.865789498901368,7,13.999899498901367C7,13.447599498901367,7.06377,12.910899498901367,7.18429,12.396299498901367C8.14883,13.912999498901367,9.434750000000001,15.508689498901367,10.96096,17.034889498901368C12.489,18.562989498901366,14.0868,19.850189498901365,15.6052,20.81518949890137Z" fill="#CBCBCB" fill-opacity="1"/></g></g></g></svg>