<?xml version="1.0" standalone="no"?><!DOCTYPE svg PUBLIC "-//W3C//DTD SVG 1.1//EN" "http://www.w3.org/Graphics/SVG/1.1/DTD/svg11.dtd"><svg t="1704955824222" class="icon" viewBox="0 0 1024 1024" version="1.1" xmlns="http://www.w3.org/2000/svg" p-id="1280" xmlns:xlink="http://www.w3.org/1999/xlink" width="200" height="200"><path d="M484 660.23v-58.16q-0.06-204.48-0.1-409c0-10 1-19.59 8.94-27.14 8.48-8.09 19.22-10.45 30.15-6 9.8 4 15.88 13.24 15.88 24.59V651.7c0 2.34-1.21 5.72 1.25 6.8 3.06 1.33 4.54-2.31 6.33-4.09Q654.32 546.8 762 439.06c12.48-12.48 30.91-12.3 43.08 0.23 11.82 12.17 11.78 29.75-0.32 41.87q-80.06 80.18-160.23 160.27C609.3 676.66 573.68 711.51 539 747.3c-14.84 15.32-39.55 14.39-53.87-0.32-29.53-30.33-59.7-60-89.7-89.92Q343.81 605.63 292 554.3c-24.38-24.33-48.81-48.61-72.74-73.37-15.81-16.35-11.11-38.95 9.38-48.6 10.63-5 24.56-2.28 34 7.05 17.9 17.71 35.64 35.59 53.45 53.4Q396 572.63 475.82 652.46c2.09 2.09 4.27 4.08 8.18 7.77zM511.72 866.21H187.4c-7.28 0-14.21-0.75-20.05-5.56-9.55-7.87-12.85-18.4-9.3-29.29 4-12.21 12.66-19.16 25.16-20.11 1.36-0.11 2.74-0.07 4.11-0.07h649.45c14.65 0 24.52 6.43 28.84 18.5 6.51 18.19-6.09 36.42-25.47 36.46-41.6 0.11-83.2 0-124.8 0z" fill="#333333" p-id="1281"></path></svg>